# xmcd
#
# Track frame offsets: 
#        150
#        37268
#        51269
#        75029
#        101597
#        122701
#        139457
#        160286
#        175094
#        191320
#        220211
#        236953
#        301228
#        333627
#
# Disc length: 4670 seconds
#
# Revision: 0
# Processed by: cddbd v1.5.2PL0 Copyright (c) Steve Scherf et al.
# Submitted via: ExactAudioCopy v0.99pb4
#
DISCID=c5123c0e
DTITLE=Various Artist - TSOB - The Sound Of Belgium Vol. 3 - CD 1
DYEAR=2016
DGENRE=Acid
TTITLE0=Plastic Bertrand - Tout Petit La Planète
TTITLE1=1000 Ohm - A.G.N.E.S.
TTITLE2=Les Tueurs De La Lune De Miel - Décollage
TTITLE3=Zwischenfall - Flucht 1985
TTITLE4=Noise Abroad - Vent That Spleen
TTITLE5=Front 242 - Quite Unusual
TTITLE6=The Weathermen - Poison
TTITLE7=Zinno - What's Your Name?
TTITLE8=Telex - The Voice
TTITLE9=Chayell - Beach
TTITLE10=Antena - Camino Del Sol
TTITLE11=Dan Lacksman - Skylab
TTITLE12=Chris Craft - Discosmic Sinfonia
TTITLE13=Waylon - Crème De La Crème
EXTD=
EXTT0=
EXTT1=
EXTT2=
EXTT3=
EXTT4=
EXTT5=
EXTT6=
EXTT7=
EXTT8=
EXTT9=
EXTT10=
EXTT11=
EXTT12=
EXTT13=
PLAYORDER=
